# xmcd
#
# Track frame offsets: 
#        150
#        6297
#        28045
#        51217
#        78497
#        98752
#        123520
#        138905
#        157687
#        196957
#        202397
#        223270
#        235800
#        246810
#        262145
#
# Disc length: 3735 seconds
#
# Revision: 5
# Processed by: cddbd v1.5.2PL0 Copyright (c) Steve Scherf et al.
# Submitted via: ExactAudioCopy v1.0b1
#
DISCID=d60e950f
DTITLE=Various Artist - Galaxy Express 999 Eternal Edition File No.5
DYEAR=2001
DGENRE=Soundtrack
TTITLE0=Galaxy Express 999 (TV Size) - Subtitle
TTITLE1=Overture - Departure (Glittering Galaxy - Bound for Andromeda)
TTITLE2=Longing (Mother's Face - Blue Earth)
TTITLE3=Challenge (Attack - Rage - Suffering)
TTITLE4=Strange Star (Invitation from the Unknown)
TTITLE5=Wandering (Journey of Sorrow)
TTITLE6=Adventure: (Solitude - Chase)
TTITLE7=Meeting (Thieves of the Universe)
TTITLE8=Finale - Eternity Prayer (Nostalgia - Awakening - Prayer)
TTITLE9=Blue Earth (TV Size)
TTITLE10=Short Piece Collection 1
TTITLE11=Short Piece Collection 2
TTITLE12=Short Piece Collection 3
TTITLE13=Galaxy Express 999 (Karaoke)
TTITLE14=Blue Earth (Karaoke)
EXTD=YEAR:2001
EXTT0=
EXTT1=
EXTT2=
EXTT3=
EXTT4=
EXTT5=
EXTT6=
EXTT7=
EXTT8=
EXTT9=
EXTT10=
EXTT11=
EXTT12=
EXTT13=
EXTT14=
PLAYORDER=
